<?xml version="1.0" encoding="UTF-8"?>
<svg id="Layer_2" data-name="Layer 2" xmlns="http://www.w3.org/2000/svg" viewBox="0 0 445.44 271.24">
  <defs>
    <style>
      .cls-1 {
        fill: #eeab4d;
      }

      .cls-1, .cls-2, .cls-3 {
        stroke-width: 0px;
      }

      .cls-2 {
        fill: #fff;
      }

      .cls-3 {
        fill: #231f20;
      }

      .cls-4 {
        fill: none;
        stroke: #fff;
        stroke-miterlimit: 10;
        stroke-width: 4px;
      }
    </style>
  </defs>
  <g id="Layer_1-2" data-name="Layer 1">
    <g>
      <path class="cls-1" d="m432.72,162.32H0l4.64,40.21h438.76s-.14-9.21-2.85-18.45c-3.9-13.31-7.84-21.76-7.84-21.76Z"/>
      <path class="cls-1" d="m442.11,212.7H5.81l1.25,10.83h431.79s.77-1.78,1.78-5.15,1.47-5.67,1.47-5.67Z"/>
      <path class="cls-4" d="m239.44,202.53c0,38.83,33.91,66.39,82.96,66.65,26.02.14,32.77.05,55.3-.65,40.16-1.26,65.74-38.87,65.74-67.83,0-16.73-13.83-46.7-27.13-74.35-9.37-19.47-11.22-28.96-5.09-45.72,6.26-17.11,9.36-25.09,9.68-40.89.36-17.22-8.85-25.71-16.83-25.63-20.9.2-7.08,38.28-38.64,40.24-.46.03-1.84.46-1.83,0,.2-7.89-10.17-14.48-10.17-14.48-.66-10.82-1.37-26.32-2.37-37.11-.07-.71-.12-1.29-.12-2.76"/>
      <circle class="cls-2" cx="302.71" cy="218.47" r="2"/>
      <circle class="cls-2" cx="317.71" cy="218.12" r="2"/>
      <circle class="cls-2" cx="332.71" cy="218.12" r="2"/>
      <circle class="cls-2" cx="347.71" cy="218.12" r="2"/>
      <circle class="cls-2" cx="362.71" cy="218.12" r="2"/>
      <circle class="cls-2" cx="377.71" cy="218.12" r="2"/>
      <g>
        <path class="cls-2" d="m108.67,141.49c-10.75,11.11-23.72,16.67-38.91,16.67-10.89,0-19.81-3.41-26.77-10.24-6.96-6.83-10.44-15.59-10.44-26.29s2.52-20.79,7.55-30.41c5.03-9.62,11.62-17.3,19.76-23.06,8.14-5.76,16.13-8.64,23.98-8.64,6.58,0,11.94,1.97,16.09,5.92,4.15,3.95,6.22,9.07,6.22,15.38,0,8.21-2.51,15.32-7.52,21.33-5.01,6.01-10.87,9.01-17.59,9.01-3.54,0-6.44-.91-8.71-2.72-2.27-1.81-3.4-4.15-3.4-7.01,0-2.45.97-4.72,2.93-6.8,1.45,2.68,3.45,4.01,5.99,4.01,3.63,0,7-2.27,10.1-6.8,3.11-4.54,4.66-9.5,4.66-14.9,0-3.76-.87-6.76-2.62-8.98-1.75-2.22-4.07-3.33-6.97-3.33-4.22,0-8.72,2.63-13.5,7.89-4.79,5.26-8.78,12.02-11.97,20.27-3.2,8.25-4.8,16.1-4.8,23.54,0,9.48,2.69,17.26,8.06,23.33,5.37,6.08,12.21,9.12,20.51,9.12,5.26,0,10-1.22,14.22-3.66,4.22-2.44,8.59-6.25,13.13-11.45v7.82Z"/>
        <path class="cls-2" d="m153.64,141.43c-6.17,5.67-11.58,9.85-16.23,12.55-4.65,2.7-9.08,4.05-13.3,4.05-4.85,0-8.77-1.88-11.74-5.65-2.97-3.76-4.46-8.82-4.46-15.17,0-9.52,2.06-20.95,6.19-34.29,4.13-13.33,9.14-25.62,15.04-36.87l17.28-6.4c.54-.18.95-.27,1.22-.27,1.31,0,2.39.96,3.23,2.89.84,1.93,1.26,4.52,1.26,7.79,0,9.25-2.13,18.21-6.4,26.87-4.26,8.66-10.93,17.92-20,27.76-.36,4.72-.54,7.96-.54,9.73,0,3.95.73,7.08,2.18,9.39,1.45,2.31,3.38,3.47,5.78,3.47s5.06-.88,7.82-2.65c2.77-1.77,6.98-5.44,12.65-11.02v7.82Zm-26.06-26.6c5.76-6.4,10.43-13.58,14.01-21.53,3.58-7.95,5.37-14.78,5.37-20.51,0-1.68-.25-3.03-.75-4.05-.5-1.02-1.13-1.53-1.9-1.53-1.68,0-4.12,4.18-7.31,12.54s-6.34,20.05-9.42,35.09Z"/>
        <path class="cls-2" d="m226.3,141.43c-7.26,6.89-12.45,11.38-15.58,13.47-3.13,2.08-6.12,3.13-8.98,3.13-7.17,0-10.54-6.33-10.14-18.98-4.54,6.49-8.72,11.27-12.55,14.35-3.83,3.08-7.79,4.63-11.87,4.63s-7.38-1.87-10.17-5.61-4.18-8.33-4.18-13.78c0-6.8,1.87-13.29,5.61-19.46s8.54-11.16,14.39-14.97c5.85-3.81,11.02-5.71,15.51-5.71,5.67,0,9.64,2.61,11.91,7.82l13.91-7.69h3.82l-6,19.93c-3.09,10.02-4.64,16.9-4.64,20.61,0,3.9,1.38,5.85,4.15,5.85,1.77,0,3.72-.94,5.85-2.82,2.13-1.88,5.12-4.75,8.98-8.61v7.82Zm-49.8,3.74c4.53,0,8.81-3.87,12.82-11.6,4.01-7.73,6.02-14.87,6.02-21.4,0-2.54-.57-4.52-1.7-5.95-1.13-1.43-2.65-2.14-4.56-2.14-4.54,0-8.83,3.86-12.89,11.57-4.06,7.71-6.09,14.81-6.09,21.29,0,2.45.6,4.43,1.8,5.95,1.2,1.52,2.73,2.28,4.59,2.28Z"/>
        <path class="cls-2" d="m277.12,141.43c-11.38,11.16-20.16,16.74-26.33,16.74-2.77,0-5.1-1.17-7.01-3.5-1.9-2.34-2.86-5.23-2.86-8.67,0-6.4,3.42-14.97,10.27-25.72-3.36,1.72-7.03,2.93-11.02,3.61-2.95,5.44-7.57,11.29-13.88,17.55h-1.56v-6.12c3.54-3.67,6.74-7.62,9.59-11.84-3.9-1.72-5.85-4.29-5.85-7.69s1.19-7.22,3.57-11.19,5.66-5.95,9.83-5.95c3.54,0,5.31,1.81,5.31,5.44,0,2.86-1.02,6.94-3.06,12.25,7.53-.82,14.11-6.58,19.73-17.28l6.19-.27-6.33,17.42c-2.63,7.35-4.33,12.35-5.1,15-.77,2.65-1.16,5-1.16,7.04,0,1.91.44,3.42,1.33,4.56.88,1.13,2.07,1.7,3.57,1.7,1.63,0,3.2-.55,4.7-1.67,1.5-1.11,4.85-4.18,10.07-9.22v7.82Z"/>
        <path class="cls-2" d="m343.93,141.29c-10.3,11.25-18.84,16.87-25.65,16.87-3.27,0-6.01-1.15-8.23-3.44-2.22-2.29-3.33-5.11-3.33-8.47,0-1.59.27-3.97.82-7.14.54-3.17.82-4.97.82-5.38,0-2.09-1.18-3.16-3.54-3.23-2.36-.07-3.54-.99-3.54-2.76,0-1.54.33-2.62.99-3.23.66-.61,1.89-.92,3.71-.92,4.99-.14,8.71-1.17,11.16-3.1,2.45-1.93,3.67-4.21,3.67-6.84,0-1.86-.67-3.39-2.01-4.59-1.34-1.2-3.05-1.8-5.14-1.8-1.13,0-2.22.14-3.27.41-1.09.27-2.13.68-3.13,1.22-1.04.59-2.13,1.34-3.27,2.25-1.09.95-2.25,2.11-3.47,3.47-1.18,1.32-2.47,2.88-3.88,4.69-.73.95-1.63,5.42-2.72,13.4-.54,4.13-.91,7.94-1.09,11.43-.18,3.27-.2,6.96-.07,11.09l-15.44,2.58c-.59-3.45-.88-7.66-.88-12.65,0-13.61,1.84-26.6,5.51-38.98s9.68-25.1,18.03-38.17c6.49-2.63,12.09-4.68,16.8-6.16,4.72-1.47,7.35-2.21,7.89-2.21,1.09,0,2.15,1.09,3.2,3.27,1.04,2.18,1.57,4.47,1.57,6.87,0,4.04-1.34,8.45-4.01,13.23-2.68,4.79-6.83,10.56-12.45,17.31,3.85-1.13,7.05-1.7,9.59-1.7,4.22,0,7.67,1.08,10.34,3.23,2.68,2.16,4.01,4.89,4.01,8.2,0,7.53-6.78,13.06-20.34,16.6,5.31,1.22,7.96,4.33,7.96,9.32l-.41,6.12c0,2.77,1.29,4.15,3.88,4.15,1.81,0,3.88-.88,6.19-2.65,2.31-1.77,5.56-5.15,9.73-10.14v7.82Zm-44.63-32.79l4.49-4.97c13.29-14.97,19.93-25.51,19.93-31.63,0-2.81-1.22-4.22-3.67-4.22-2.81,0-6.04,3.31-9.69,9.93-3.65,6.62-7.34,16.92-11.06,30.89Z"/>
        <path class="cls-2" d="m364.81,101.56c3.13-.82,6.28-1.49,9.46-2.01,3.17-.52,5.08-.78,5.71-.78.45,0,.68.18.68.54,0,.68-.18,1.38-.54,2.11-.73,2.09-1.09,4.08-1.09,5.98,0,2.36,1.37,5.58,4.09,9.66,2.72,4.08,4.08,7.87,4.08,11.36,0,6.94-3.32,13.63-9.97,20.07-6.64,6.44-13.53,9.66-20.65,9.66-3.08,0-5.9-.82-8.44-2.45s-3.81-3.38-3.81-5.24c0-1.09,1.26-3.15,3.78-6.19,2.52-3.04,4.32-4.56,5.41-4.56,1.45,0,2.74,1.86,3.88,5.58,1.13,3.72,3.08,5.58,5.85,5.58s5.36-1.28,7.79-3.84c2.42-2.56,3.64-5.32,3.64-8.27,0-2.86-1.54-6.67-4.62-11.43-3.09-4.76-5.13-8.75-6.12-11.97-5.26,8.48-11.93,17.17-20,26.06h-1.56v-6.12c11.11-11.84,18.59-23.08,22.45-33.74Z"/>
      </g>
      <g>
        <path class="cls-3" d="m34.5,175.55h2.47c1.62,0,2.94.35,3.97,1.05,1.03.7,1.54,1.59,1.54,2.67,0,1.31-.76,2.4-2.27,3.28,2.34.78,3.52,2.14,3.52,4.07,0,1.34-.6,2.43-1.81,3.25-1.21.82-2.83,1.23-4.85,1.23h-2.55v-15.55Zm2.1,1.88v4.6c1.17-.02,2.07-.24,2.69-.67.62-.43.93-1.03.93-1.78,0-.66-.28-1.19-.84-1.58-.56-.39-1.31-.59-2.26-.59-.2,0-.38,0-.52.02Zm0,6.45v5.32h.17c1.83,0,3.08-.29,3.75-.88.67-.59,1-1.18,1-1.79,0-.8-.37-1.45-1.12-1.93-.75-.48-1.77-.72-3.08-.72h-.72Z"/>
        <path class="cls-3" d="m50.77,175.55h2.35l3.82,6.26,3.78-6.26h2.35l-5.1,8.42v7.13h-2.12v-7.1l-5.08-8.45Z"/>
        <path class="cls-3" d="m88.19,174.95l7.34,16.15h-2.23l-1.8-3.98h-6.6l-1.78,3.98h-2.21l7.28-16.15Zm0,4.85l-2.49,5.55h5l-2.51-5.55Z"/>
        <path class="cls-3" d="m101.67,175.58h2.12v9.56c0,1.42.34,2.51,1.02,3.28.68.77,1.64,1.16,2.89,1.16s2.2-.36,2.89-1.07c.69-.71,1.03-1.71,1.03-3.01v-9.92h2.12v9.78c0,1.9-.54,3.43-1.63,4.57-1.09,1.14-2.53,1.71-4.34,1.71s-3.33-.58-4.44-1.73c-1.11-1.16-1.67-2.86-1.67-5.11v-9.2Z"/>
        <path class="cls-3" d="m131.34,177.29l-1.72,1.38c-.45-.47-.87-.82-1.24-1.06-.37-.23-.9-.35-1.6-.35-.76,0-1.38.17-1.86.52s-.71.79-.71,1.33c0,.47.21.89.62,1.25s1.12.76,2.12,1.19c1,.43,1.78.83,2.33,1.2.56.37,1.01.78,1.37,1.23s.62.92.8,1.41c.17.5.26,1.02.26,1.57,0,1.29-.47,2.39-1.41,3.31-.94.91-2.08,1.37-3.41,1.37s-2.45-.36-3.45-1.07c-1-.71-1.76-1.78-2.3-3.21l2.12-.6c.77,1.75,1.96,2.62,3.55,2.62.77,0,1.42-.23,1.93-.69.51-.46.77-1.05.77-1.75,0-.42-.13-.85-.4-1.27-.27-.43-.6-.78-1-1.05-.4-.28-1.03-.59-1.9-.95s-1.54-.68-2.01-.98c-.47-.3-.88-.65-1.22-1.06-.34-.41-.59-.82-.75-1.23-.16-.41-.24-.84-.24-1.31,0-1.11.45-2.06,1.34-2.85.9-.78,1.98-1.18,3.26-1.18.85,0,1.7.18,2.58.55.87.37,1.59.92,2.17,1.67Z"/>
        <path class="cls-3" d="m138.39,175.55h9.51v2.12h-3.71v13.43h-2.1v-13.43h-3.7v-2.12Z"/>
        <path class="cls-3" d="m155.25,175.55h2.1v15.55h-2.1v-15.55Z"/>
        <path class="cls-3" d="m165.65,174.93l11.5,11.82v-11.2h2.12v16.27l-11.5-11.77v11.05h-2.12v-16.17Z"/>
        <path class="cls-3" d="m199.42,175.55h2.12v5.98h7.43v-5.98h2.1v15.55h-2.1v-7.47h-7.43v7.47h-2.12v-15.55Z"/>
        <path class="cls-3" d="m225.25,174.95l7.34,16.15h-2.23l-1.8-3.98h-6.6l-1.79,3.98h-2.21l7.28-16.15Zm0,4.85l-2.49,5.55h5l-2.52-5.55Z"/>
        <path class="cls-3" d="m237.09,175.55h2.35l3.82,6.26,3.78-6.26h2.35l-5.1,8.42v7.13h-2.12v-7.1l-5.08-8.45Z"/>
        <path class="cls-3" d="m267.67,174.95l5,11.48,4.7-10.86h2.19l-6.89,16.02-5-11.51-5.01,11.51-6.9-16.02h2.19l4.73,10.98,4.98-11.6Z"/>
        <path class="cls-3" d="m290.87,174.95l7.34,16.15h-2.23l-1.8-3.98h-6.6l-1.79,3.98h-2.21l7.28-16.15Zm0,4.85l-2.49,5.55h5l-2.52-5.55Z"/>
        <path class="cls-3" d="m305.49,175.55h3.37c1.68,0,3.04.42,4.1,1.25,1.05.83,1.58,1.9,1.58,3.2,0,1.04-.34,1.96-1.02,2.76-.68.8-1.75,1.36-3.19,1.68l4.52,6.66h-2.44l-4.31-6.4h-.48v6.4h-2.12v-15.55Zm2.12,1.88v5.42c3.13.07,4.7-.84,4.7-2.72,0-.66-.18-1.2-.55-1.62-.37-.42-.85-.7-1.46-.85-.61-.15-1.51-.23-2.69-.23Z"/>
        <path class="cls-3" d="m322.69,175.55h3.77c2.99,0,5.21.79,6.67,2.37s2.18,3.38,2.18,5.41-.75,3.85-2.26,5.42c-1.51,1.57-3.69,2.36-6.57,2.36h-3.8v-15.55Zm2.12,2.08v11.38h.12c1.58,0,2.77-.07,3.56-.21.8-.14,1.55-.45,2.27-.93.72-.48,1.29-1.12,1.71-1.91.42-.79.63-1.67.63-2.62,0-1.2-.34-2.28-1.01-3.25-.68-.97-1.48-1.62-2.42-1.95-.94-.33-2.2-.5-3.79-.5h-1.07Z"/>
      </g>
    </g>
  </g>
</svg>